<svg width="76" height="26" viewBox="0 0 76 26" fill="none" xmlns="http://www.w3.org/2000/svg">
<path d="M62.922 0.874023L65.808 1.31602C64.69 4.12402 63.052 6.77602 60.192 8.90802C59.75 8.25802 58.788 7.37402 58.138 6.98402C60.66 5.29402 62.194 2.98002 62.922 0.874023ZM63.65 2.77202H68.746V5.16402H62.22L63.65 2.77202ZM64.066 8.80402H66.276C66.094 11.326 65.548 13.094 63.26 14.186C63 13.64 62.402 12.886 61.934 12.522C63.598 11.794 63.988 10.598 64.066 8.80402ZM67.264 8.90802H69.526V11.04C69.526 11.508 69.552 11.56 69.942 11.56C70.098 11.56 70.748 11.56 70.93 11.56C71.242 11.56 71.346 11.482 71.398 11.248C71.814 11.56 72.698 11.872 73.322 11.976C73.088 13.12 72.464 13.484 71.268 13.484C70.904 13.484 69.942 13.484 69.578 13.484C67.654 13.484 67.264 12.938 67.264 11.04V8.90802ZM58.684 16.5H74.882V19.074H58.684V16.5ZM68.356 17.358C69.266 20.322 71.346 22.09 75.298 22.688C74.648 23.26 73.894 24.482 73.53 25.262C68.928 24.3 66.822 21.856 65.652 17.644L68.356 17.358ZM62.428 7.03602H72.048V9.48002H62.428V15.694H59.828V7.03602H62.428ZM71.372 7.03602H74.024V15.642H71.372V7.03602ZM67.732 2.77202H68.356L68.798 2.66802L70.774 3.91602C70.02 5.50202 68.772 7.50402 67.81 8.77802C67.238 8.36202 66.328 7.79002 65.704 7.47802C66.484 6.30802 67.342 4.43602 67.732 3.29202V2.77202ZM65.314 14.368H68.148C67.758 20.244 66.588 23.676 59.048 25.418C58.788 24.69 58.086 23.572 57.514 23C64.274 21.7 65.002 19.126 65.314 14.368ZM50.52 14.004C52.6 13.536 55.694 12.704 58.632 11.872L59.048 14.68C56.37 15.512 53.51 16.344 51.222 16.994L50.52 14.004ZM50.936 5.86602H58.892V8.72602H50.936V5.86602ZM53.692 0.952023H56.552V22.038C56.552 23.494 56.292 24.3 55.486 24.768C54.706 25.262 53.588 25.366 51.898 25.366C51.82 24.586 51.456 23.312 51.092 22.454C52.028 22.506 52.938 22.506 53.25 22.48C53.562 22.48 53.692 22.402 53.692 22.038V0.952023Z" fill="#393131"/>
<path d="M38.17 15.564H41.394V21.3361C41.394 22.1681 41.55 22.298 42.486 22.298C42.902 22.298 44.644 22.298 45.19 22.298C46.074 22.298 46.204 21.83 46.334 18.944C46.984 19.438 48.336 19.958 49.168 20.166C48.856 24.1181 47.998 25.1581 45.476 25.1581C44.826 25.1581 42.642 25.1581 42.018 25.1581C38.924 25.1581 38.17 24.222 38.17 21.362V15.564ZM32.164 16.578H35.466C34.868 20.894 33.308 23.806 26.314 25.392C26.028 24.612 25.222 23.338 24.624 22.688C30.708 21.596 31.67 19.594 32.164 16.578ZM31.748 10.676V14.16H42.226V10.676H31.748ZM28.732 7.89405H45.45V16.942H28.732V7.89405ZM34.504 1.55005H41.524V4.35805H34.504V1.55005ZM30.864 2.61605L34.01 3.63005C32.398 6.56805 29.694 9.37605 27.146 11.118C26.6 10.468 25.43 9.24605 24.702 8.67405C27.198 7.32205 29.564 5.03405 30.864 2.61605ZM39.054 1.55005H42.408C43.786 4.28005 46.516 7.03605 49.454 8.51805C48.7 9.06405 47.556 10.208 47.01 10.962C44.02 9.06405 41.342 6.02205 39.73 3.11005H39.054V1.55005Z" fill="#393131"/>
<path d="M1.38009 7.47808H4.60409V19.6461C4.60409 21.2581 5.04609 21.5181 7.93209 21.5181C9.28409 21.5181 14.9781 21.5181 16.5121 21.5181C19.1901 21.5181 19.6061 20.8421 19.9701 17.0201C20.7761 17.5401 22.2321 18.0861 23.1421 18.2421C22.5441 23.1821 21.4001 24.6121 16.6421 24.6121C15.3681 24.6121 9.12809 24.6121 7.95809 24.6121C2.91409 24.6121 1.38009 23.6241 1.38009 19.6461V7.47808ZM3.25209 11.0141H17.6301V14.1081H3.25209V11.0141ZM0.340088 2.38208H19.7101V15.3041H16.4601V5.47608H0.340088V2.38208Z" fill="#393131"/>
</svg>
